<svg width="238" height="34" viewBox="0 0 238 34" fill="none" xmlns="http://www.w3.org/2000/svg">
<path d="M8.12468 26.2543C6.65787 26.2543 5.39832 25.9322 4.34604 25.2882C3.30014 24.6441 2.4934 23.7545 1.92581 22.6194C1.36459 21.478 1.08398 20.1643 1.08398 18.6785C1.08398 17.1863 1.37097 15.8695 1.94494 14.728C2.51891 13.5802 3.32884 12.6874 4.37474 12.0497C5.42702 11.4057 6.67062 11.0836 8.10555 11.0836C9.29813 11.0836 10.3536 11.3036 11.2719 11.7436C12.1967 12.1773 12.9333 12.7926 13.4817 13.5897C14.0302 14.3805 14.3427 15.3051 14.4192 16.3637H11.1093C10.9754 15.6559 10.6565 15.066 10.1527 14.5941C9.65526 14.1158 8.98882 13.8767 8.15338 13.8767C7.44548 13.8767 6.82368 14.068 6.28798 14.4506C5.75227 14.8269 5.33455 15.3689 5.03481 16.0767C4.74145 16.7846 4.59476 17.6327 4.59476 18.6211C4.59476 19.6223 4.74145 20.4832 5.03481 21.2038C5.32817 21.918 5.73952 22.4696 6.26884 22.8586C6.80455 23.2412 7.43273 23.4325 8.15338 23.4325C8.66357 23.4325 9.11956 23.3368 9.52134 23.1455C9.92949 22.9479 10.2707 22.6641 10.5449 22.2942C10.8191 21.9244 11.0073 21.4748 11.1093 20.9455H14.4192C14.3363 21.9849 14.0302 22.9064 13.5009 23.7099C12.9715 24.507 12.2509 25.1319 11.3389 25.5847C10.4269 26.0311 9.35552 26.2543 8.12468 26.2543Z" fill="white"/>
<path d="M16.724 25.9673V11.2749H20.0817V13.7237H20.2348C20.5026 12.8755 20.9618 12.2219 21.6123 11.7628C22.2692 11.2973 23.0185 11.0645 23.8603 11.0645C24.0517 11.0645 24.2653 11.0741 24.5013 11.0932C24.7436 11.1059 24.9445 11.1283 25.1039 11.1601V14.3454C24.9573 14.2944 24.7245 14.2498 24.4056 14.2115C24.0931 14.1669 23.7902 14.1445 23.4968 14.1445C22.8655 14.1445 22.2979 14.2816 21.7941 14.5558C21.2966 14.8237 20.9044 15.1967 20.6174 15.675C20.3304 16.1533 20.1869 16.7049 20.1869 17.3298V25.9673H16.724Z" fill="white"/>
<path d="M32.7658 26.2543C31.2926 26.2543 30.0203 25.9482 28.9489 25.336C27.8838 24.7174 27.0643 23.8438 26.4904 22.7151C25.9164 21.58 25.6294 20.244 25.6294 18.7072C25.6294 17.1959 25.9164 15.8695 26.4904 14.728C27.0707 13.5802 27.8806 12.6874 28.9202 12.0497C29.9597 11.4057 31.181 11.0836 32.584 11.0836C33.4896 11.0836 34.3442 11.2303 35.1477 11.5236C35.9577 11.8106 36.6719 12.257 37.2906 12.8628C37.9155 13.4686 38.4066 14.2402 38.7637 15.1776C39.1209 16.1086 39.2995 17.2182 39.2995 18.5063V19.5681H27.2557V17.2341H35.98C35.9736 16.5709 35.8301 15.9811 35.5495 15.4646C35.2689 14.9417 34.8767 14.5303 34.3729 14.2306C33.8754 13.9309 33.2951 13.7811 32.6318 13.7811C31.9239 13.7811 31.3021 13.9532 30.7664 14.2976C30.2307 14.6356 29.813 15.0819 29.5133 15.6367C29.2199 16.1851 29.07 16.7878 29.0637 17.4446V19.482C29.0637 20.3365 29.2199 21.0699 29.5324 21.682C29.8449 22.2878 30.2818 22.7534 30.843 23.0786C31.4042 23.3974 32.0611 23.5568 32.8136 23.5568C33.3174 23.5568 33.7734 23.4867 34.1816 23.3464C34.5897 23.1997 34.9437 22.9861 35.2434 22.7055C35.5431 22.4249 35.7695 22.0774 35.9226 21.6629L39.156 22.0264C38.9519 22.8809 38.5629 23.627 37.9889 24.2647C37.4213 24.896 36.6943 25.387 35.8078 25.7377C34.9213 26.0821 33.9073 26.2543 32.7658 26.2543Z" fill="white"/>
<path d="M45.9186 26.2638C44.9875 26.2638 44.1488 26.098 43.4027 25.7664C42.6629 25.4285 42.0762 24.9311 41.6425 24.2742C41.2152 23.6174 41.0016 22.8076 41.0016 21.8446C41.0016 21.0156 41.1546 20.3301 41.4607 19.7881C41.7669 19.2461 42.1846 18.8124 42.7139 18.4872C43.2432 18.162 43.8395 17.9165 44.5028 17.7507C45.1724 17.5785 45.8644 17.4541 46.5786 17.3776C47.4396 17.2884 48.1379 17.2086 48.6736 17.1385C49.2093 17.062 49.5983 16.9472 49.8407 16.7941C50.0894 16.6347 50.2138 16.3892 50.2138 16.0576V16.0002C50.2138 15.2796 50.0001 14.7216 49.5728 14.3263C49.1455 13.9309 48.5301 13.7332 47.7266 13.7332C46.8784 13.7332 46.2055 13.9182 45.7081 14.288C45.217 14.6579 44.8854 15.0947 44.7132 15.5985L41.4799 15.1393C41.735 14.2466 42.1559 13.5005 42.7426 12.901C43.3293 12.2952 44.0468 11.8425 44.895 11.5428C45.7432 11.2367 46.6807 11.0836 47.7074 11.0836C48.4153 11.0836 49.12 11.1665 49.8216 11.3323C50.5231 11.4981 51.164 11.7723 51.7444 12.1549C52.3247 12.5312 52.7903 13.0445 53.141 13.695C53.4982 14.3454 53.6767 15.1585 53.6767 16.1341V25.9673H50.3477V23.949H50.2329C50.0224 24.3571 49.7259 24.7398 49.3433 25.0969C48.967 25.4476 48.4919 25.7314 47.9179 25.9482C47.3503 26.1586 46.6839 26.2638 45.9186 26.2638ZM46.8178 23.7195C47.5129 23.7195 48.1156 23.5823 48.6258 23.3081C49.136 23.0276 49.5282 22.6577 49.8024 22.1986C50.083 21.7394 50.2233 21.2388 50.2233 20.6968V18.9655C50.1149 19.0548 49.93 19.1377 49.6685 19.2142C49.4134 19.2907 49.1264 19.3577 48.8075 19.415C48.4887 19.4724 48.173 19.5235 47.8605 19.5681C47.548 19.6127 47.277 19.651 47.0474 19.6829C46.5308 19.753 46.0684 19.8678 45.6603 20.0272C45.2521 20.1867 44.9301 20.4098 44.6941 20.6968C44.4581 20.9774 44.3401 21.3409 44.3401 21.7873C44.3401 22.4249 44.5729 22.9064 45.0385 23.2316C45.504 23.5568 46.0971 23.7195 46.8178 23.7195Z" fill="white"/>
<path d="M63.9573 11.2749V13.9532H55.5104V11.2749H63.9573ZM57.5958 7.75488H61.0587V21.5481C61.0587 22.0136 61.1289 22.3707 61.2692 22.6194C61.4159 22.8618 61.6072 23.0276 61.8432 23.1168C62.0791 23.2061 62.3406 23.2507 62.6276 23.2507C62.8444 23.2507 63.0421 23.2348 63.2207 23.2029C63.4056 23.171 63.5459 23.1423 63.6416 23.1168L64.2251 25.8238C64.0402 25.8876 63.7755 25.9577 63.4311 26.0343C63.0931 26.1108 62.6786 26.1554 62.1875 26.1682C61.3202 26.1937 60.539 26.063 59.8438 25.776C59.1487 25.4827 58.597 25.0299 58.1889 24.4177C57.7871 23.8055 57.5894 23.0403 57.5958 22.122V7.75488Z" fill="white"/>
<path d="M82.5309 25.9673V11.2749H85.8886V13.7237H86.0416C86.3095 12.8755 86.7687 12.2219 87.4192 11.7628C88.076 11.2973 88.8254 11.0645 89.6672 11.0645C89.8586 11.0645 90.0722 11.0741 90.3082 11.0932C90.5505 11.1059 90.7514 11.1283 90.9108 11.1601V14.3454C90.7641 14.2944 90.5314 14.2498 90.2125 14.2115C89.9 14.1669 89.5971 14.1445 89.3037 14.1445C88.6723 14.1445 88.1048 14.2816 87.6009 14.5558C87.1035 14.8237 86.7113 15.1967 86.4243 15.675C86.1373 16.1533 85.9938 16.7049 85.9938 17.3298V25.9673H82.5309Z" fill="white"/>
<path d="M80.8132 18.6703C80.8132 22.8563 77.4198 26.2497 73.2338 26.2497C69.0477 26.2497 65.6543 22.8563 65.6543 18.6703C65.6543 14.4843 69.0477 11.0908 73.2338 11.0908C77.4198 11.0908 80.8132 14.4843 80.8132 18.6703Z" fill="white"/>
<path d="M92.6292 26.0195V11.3259H96.0922V26.0195H92.6292ZM94.3702 9.24047C93.8218 9.24047 93.3499 9.05871 92.9544 8.6952C92.559 8.32531 92.3613 7.88207 92.3613 7.3655C92.3613 6.84255 92.559 6.39932 92.9544 6.0358C93.3499 5.66591 93.8218 5.48097 94.3702 5.48097C94.9251 5.48097 95.397 5.66591 95.786 6.0358C96.1814 6.39932 96.3791 6.84255 96.3791 7.3655C96.3791 7.88207 96.1814 8.32531 95.786 8.6952C95.397 9.05871 94.9251 9.24047 94.3702 9.24047Z" fill="white"/>
<path d="M113.207 11.248H127.917V25.9575H113.207V11.248Z" fill="white"/>
<path d="M168.475 11.248H183.184L168.475 25.9575V11.248Z" fill="white"/>
<mask id="mask0_792_232" style="mask-type:alpha" maskUnits="userSpaceOnUse" x="205" y="11" width="16" height="15">
<path d="M205.666 11.2471H220.375V25.9565H205.666V11.2471Z" fill="#C4C4C4"/>
</mask>
<g mask="url(#mask0_792_232)">
<path d="M220.376 25.9565C220.376 34.0804 213.79 40.666 205.667 40.666C197.543 40.666 190.957 34.0804 190.957 25.9565C190.957 17.8327 197.543 11.2471 205.667 11.2471C213.79 11.2471 220.376 17.8327 220.376 25.9565Z" fill="white"/>
</g>
<path d="M137.378 31.8358C136.135 31.8358 135.067 31.6668 134.174 31.3288C133.281 30.9971 132.564 30.5507 132.021 29.9895C131.479 29.4283 131.103 28.8065 130.893 28.1241L134.011 27.3684C134.152 27.6553 134.356 27.9391 134.623 28.2198C134.891 28.5067 135.252 28.7427 135.704 28.9276C136.164 29.119 136.741 29.2146 137.436 29.2146C138.418 29.2146 139.231 28.9755 139.875 28.4972C140.519 28.0252 140.841 27.2472 140.841 26.163V23.3793H140.669C140.491 23.7364 140.229 24.1031 139.885 24.4794C139.547 24.8556 139.097 25.1713 138.536 25.4264C137.981 25.6815 137.283 25.8091 136.441 25.8091C135.312 25.8091 134.289 25.5444 133.37 25.0151C132.458 24.4794 131.731 23.6822 131.189 22.6235C130.653 21.5585 130.386 20.2256 130.386 18.6249C130.386 17.0114 130.653 15.6498 131.189 14.5401C131.731 13.4241 132.461 12.5791 133.38 12.0051C134.298 11.4247 135.322 11.1346 136.451 11.1346C137.312 11.1346 138.019 11.2813 138.574 11.5746C139.135 11.8616 139.582 12.2092 139.914 12.6173C140.245 13.0191 140.497 13.3986 140.669 13.7557H140.861V11.3259H144.276V26.2587C144.276 27.515 143.976 28.5546 143.376 29.3773C142.777 30.1999 141.957 30.8154 140.918 31.2235C139.878 31.6317 138.699 31.8358 137.378 31.8358ZM137.407 23.0923C138.141 23.0923 138.766 22.9137 139.282 22.5566C139.799 22.1994 140.191 21.6861 140.459 21.0164C140.727 20.3468 140.861 19.5432 140.861 18.6058C140.861 17.681 140.727 16.8711 140.459 16.1759C140.197 15.4808 139.808 14.9419 139.292 14.5593C138.782 14.1702 138.153 13.9757 137.407 13.9757C136.636 13.9757 135.991 14.1766 135.475 14.5784C134.958 14.9802 134.569 15.5318 134.308 16.2333C134.046 16.9285 133.916 17.7193 133.916 18.6058C133.916 19.505 134.046 20.2926 134.308 20.9686C134.576 21.6382 134.968 22.1612 135.484 22.5374C136.007 22.9073 136.648 23.0923 137.407 23.0923ZM147.286 26.0195V11.3259H150.749V26.0195H147.286ZM149.027 9.24047C148.479 9.24047 148.007 9.05871 147.611 8.6952C147.216 8.32531 147.018 7.88207 147.018 7.3655C147.018 6.84255 147.216 6.39932 147.611 6.0358C148.007 5.66591 148.479 5.48097 149.027 5.48097C149.582 5.48097 150.054 5.66591 150.443 6.0358C150.838 6.39932 151.036 6.84255 151.036 7.3655C151.036 7.88207 150.838 8.32531 150.443 8.6952C150.054 9.05871 149.582 9.24047 149.027 9.24047ZM157.999 26.3161C157.068 26.3161 156.23 26.1503 155.484 25.8186C154.744 25.4806 154.157 24.9832 153.723 24.3263C153.296 23.6694 153.082 22.8595 153.082 21.8965C153.082 21.0674 153.235 20.3819 153.542 19.8398C153.848 19.2977 154.265 18.864 154.795 18.5388C155.324 18.2135 155.92 17.968 156.584 17.8022C157.253 17.63 157.945 17.5056 158.659 17.4291C159.52 17.3398 160.219 17.2601 160.754 17.19C161.29 17.1134 161.679 16.9986 161.922 16.8456C162.17 16.6861 162.295 16.4406 162.295 16.109V16.0516C162.295 15.3309 162.081 14.7729 161.654 14.3775C161.226 13.9821 160.611 13.7844 159.807 13.7844C158.959 13.7844 158.286 13.9693 157.789 14.3392C157.298 14.7091 156.966 15.146 156.794 15.6498L153.561 15.1906C153.816 14.2978 154.237 13.5516 154.823 12.9521C155.41 12.3463 156.128 11.8935 156.976 11.5937C157.824 11.2876 158.762 11.1346 159.788 11.1346C160.496 11.1346 161.201 11.2175 161.902 11.3833C162.604 11.5491 163.245 11.8233 163.825 12.206C164.406 12.5823 164.871 13.0956 165.222 13.7461C165.579 14.3966 165.758 15.2098 165.758 16.1855V26.0195H162.429V24.0011H162.314C162.103 24.4092 161.807 24.7919 161.424 25.149C161.048 25.4998 160.573 25.7836 159.999 26.0004C159.431 26.2109 158.765 26.3161 157.999 26.3161ZM158.899 23.7715C159.594 23.7715 160.196 23.6344 160.707 23.3601C161.217 23.0795 161.609 22.7096 161.883 22.2505C162.164 21.7913 162.304 21.2907 162.304 20.7486V19.0171C162.196 19.1064 162.011 19.1893 161.749 19.2658C161.494 19.3423 161.207 19.4093 160.888 19.4667C160.57 19.5241 160.254 19.5751 159.941 19.6198C159.629 19.6644 159.358 19.7027 159.128 19.7346C158.612 19.8047 158.149 19.9195 157.741 20.0789C157.333 20.2384 157.011 20.4616 156.775 20.7486C156.539 21.0292 156.421 21.3927 156.421 21.8391C156.421 22.4769 156.654 22.9584 157.119 23.2836C157.585 23.6089 158.178 23.7715 158.899 23.7715Z" fill="white"/>
<path d="M188.322 26.2778C187.168 26.2778 186.134 25.9813 185.222 25.3882C184.31 24.7951 183.59 23.9341 183.06 22.8053C182.531 21.6765 182.266 20.3053 182.266 18.6918C182.266 17.0592 182.534 15.6817 183.07 14.5593C183.612 13.4305 184.342 12.5791 185.261 12.0051C186.179 11.4247 187.203 11.1346 188.331 11.1346C189.192 11.1346 189.9 11.2813 190.455 11.5746C191.01 11.8616 191.45 12.2092 191.775 12.6173C192.101 13.0191 192.352 13.3986 192.531 13.7557H192.674V6.42802H196.147V26.0195H192.741V23.7045H192.531C192.352 24.0617 192.094 24.4411 191.756 24.8429C191.418 25.2383 190.972 25.5763 190.417 25.8569C189.862 26.1375 189.164 26.2778 188.322 26.2778ZM189.288 23.4367C190.021 23.4367 190.646 23.239 191.163 22.8436C191.68 22.4418 192.072 21.8838 192.34 21.1695C192.608 20.4552 192.741 19.623 192.741 18.6727C192.741 17.7225 192.608 16.8966 192.34 16.1951C192.078 15.4936 191.689 14.9483 191.173 14.5593C190.662 14.1702 190.034 13.9757 189.288 13.9757C188.516 13.9757 187.872 14.1766 187.356 14.5784C186.839 14.9802 186.45 15.535 186.189 16.2429C185.927 16.9508 185.796 17.7607 185.796 18.6727C185.796 19.5911 185.927 20.4106 186.189 21.1312C186.456 21.8455 186.849 22.4099 187.365 22.8244C187.888 23.2326 188.529 23.4367 189.288 23.4367ZM199.298 26.0195V11.3259H202.761V26.0195H199.298ZM201.039 9.24047C200.491 9.24047 200.019 9.05871 199.624 8.6952C199.228 8.32531 199.031 7.88207 199.031 7.3655C199.031 6.84255 199.228 6.39932 199.624 6.0358C200.019 5.66591 200.491 5.48097 201.039 5.48097C201.594 5.48097 202.066 5.66591 202.455 6.0358C202.851 6.39932 203.048 6.84255 203.048 7.3655C203.048 7.88207 202.851 8.32531 202.455 8.6952C202.066 9.05871 201.594 9.24047 201.039 9.24047Z" fill="white"/>
<path d="M228.614 26.3065C227.179 26.3065 225.936 25.9908 224.884 25.3595C223.831 24.7281 223.015 23.8448 222.435 22.7096C221.861 21.5745 221.574 20.2479 221.574 18.7301C221.574 17.2123 221.861 15.8826 222.435 14.741C223.015 13.5995 223.831 12.713 224.884 12.0816C225.936 11.4503 227.179 11.1346 228.614 11.1346C230.049 11.1346 231.293 11.4503 232.345 12.0816C233.398 12.713 234.211 13.5995 234.785 14.741C235.365 15.8826 235.655 17.2123 235.655 18.7301C235.655 20.2479 235.365 21.5745 234.785 22.7096C234.211 23.8448 233.398 24.7281 232.345 25.3595C231.293 25.9908 230.049 26.3065 228.614 26.3065ZM228.634 23.5323C229.412 23.5323 230.062 23.3187 230.585 22.8914C231.108 22.4577 231.497 21.8774 231.752 21.1504C232.014 20.4233 232.144 19.6134 232.144 18.7205C232.144 17.8213 232.014 17.0082 231.752 16.2812C231.497 15.5478 231.108 14.9642 230.585 14.5306C230.062 14.0969 229.412 13.8801 228.634 13.8801C227.836 13.8801 227.173 14.0969 226.644 14.5306C226.121 14.9642 225.729 15.5478 225.467 16.2812C225.212 17.0082 225.085 17.8213 225.085 18.7205C225.085 19.6134 225.212 20.4233 225.467 21.1504C225.729 21.8774 226.121 22.4577 226.644 22.8914C227.173 23.3187 227.836 23.5323 228.634 23.5323Z" fill="white"/>
</svg>
