<svg width="601" height="264" viewBox="0 0 601 264" fill="none" xmlns="http://www.w3.org/2000/svg">
<g clip-path="url(#clip0_236_40)">
<path d="M481.572 43.129C483.814 42.6254 486.038 42.608 487.72 43.233L488.048 43.3666C489.451 43.988 490.9 45.4491 492.347 47.5329C493.779 49.5962 495.144 52.1734 496.414 54.8935C497.683 57.61 498.846 60.4454 499.88 63.0187C500.781 65.2595 501.59 67.3191 502.279 68.9044L502.567 69.554C504.333 73.4499 507.192 80.0414 510.811 85.8188C512.621 88.7087 514.641 91.4272 516.834 93.5153C518.885 95.4679 521.14 96.9189 523.565 97.3915L524.052 97.473C526.854 97.8624 529.109 97.3959 530.887 96.2782C532.655 95.1666 533.87 93.4616 534.697 91.5178C536.341 87.6577 536.539 82.6596 536.388 78.7437L536.355 77.9019L535.463 78.0066L535.411 78.0195C528.456 79.8223 521.972 80.495 516.771 78.8329C511.811 77.2476 507.898 73.4982 505.879 66.2001L505.689 65.4829C504.086 59.1141 504.09 53.1938 506.152 48.5206C508.132 44.0338 512.057 40.5855 518.571 38.9897L519.21 38.8411C526.486 37.2348 532.776 38.1918 538.05 40.8686C543.333 43.5507 547.643 47.9834 550.899 53.3947C557.318 64.0662 559.561 78.4199 557.143 90.1618L557.024 90.7186C553.257 107.827 537.24 120.387 519.551 116.449L518.886 116.301L518.651 116.941C516.395 123.08 511.723 126.515 506.244 127.794C500.737 129.079 494.415 128.181 488.991 125.602L487.948 125.106L487.879 126.259C487.628 130.508 486.804 135.263 484.759 138.674C483.745 140.365 482.448 141.695 480.798 142.489C479.256 143.231 477.344 143.534 474.956 143.157L474.472 143.072C471.643 142.531 469.729 141.448 468.449 140.056C467.165 138.66 466.459 136.889 466.163 134.868C465.639 131.296 466.413 127.085 467.395 123.176L467.827 121.521C469.44 115.508 471.924 110.98 475.545 108.2C479.032 105.523 483.685 104.383 489.912 105.252L490.52 105.342C492.07 105.588 493.579 106.037 495.123 106.532C496.651 107.022 498.231 107.561 499.846 107.945L500.323 108.058L500.63 107.679C500.816 107.45 500.842 107.193 500.829 107.023C500.816 106.86 500.765 106.72 500.723 106.623C500.636 106.426 500.504 106.228 500.374 106.054C500.106 105.696 499.724 105.279 499.342 104.882C498.954 104.48 498.544 104.077 498.207 103.748C498.03 103.575 497.881 103.43 497.764 103.315L497.52 103.064C487.581 91.8741 479.63 75.7316 474.796 61.3302L474.338 59.9414C473.41 57.0772 472.483 54.6129 472.396 52.2933C472.313 50.0775 473.005 47.9959 475.468 45.9353C476.928 44.7168 479.192 43.6638 481.572 43.129ZM529.01 51.7779C527.754 51.28 525.854 51.2327 524.125 51.5111C523.244 51.6528 522.367 51.8854 521.595 52.2129C520.927 52.4962 520.298 52.8671 519.82 53.3462L519.625 53.5579L519.624 53.559C518.419 54.9835 518.101 57.3441 518.325 59.4743C518.535 61.4767 519.255 63.5788 520.515 64.82L520.775 65.057C521.444 65.6209 522.369 65.9362 523.324 66.0903C524.294 66.2466 525.373 66.2491 526.424 66.1269C527.475 66.0048 528.525 65.7544 529.437 65.3852C530.336 65.0214 531.168 64.5149 531.704 63.8392L531.906 63.5855L531.903 63.5612C532.419 62.7932 532.719 61.8319 532.852 60.8344C533.004 59.7054 532.952 58.4709 532.721 57.2885C532.49 56.1073 532.073 54.9472 531.47 53.978C530.869 53.0116 530.052 52.1913 529.009 51.7781L529.01 51.7779Z" fill="white" stroke="white" stroke-width="1.55757"/>
</g>
<path d="M554.388 23.2555L554.387 23.2623L554.382 23.2657C553.169 23.9244 551.979 24.6653 550.853 25.4708C549.738 26.269 548.657 27.1461 547.649 28.0811C547.646 28.0833 547.644 28.0857 547.641 28.0876C547.631 28.096 547.621 28.1037 547.615 28.1091L547.607 28.1099L547.603 28.1092L547.599 28.1037L530.785 9.94262L530.783 9.93944C530.783 9.93804 530.782 9.93486 530.782 9.93081C530.782 9.92683 530.782 9.92329 530.783 9.92128C530.784 9.91991 530.785 9.9191 530.787 9.91764L530.785 9.91741C532.56 8.27607 534.462 6.72656 536.426 5.3212C538.389 3.91604 540.469 2.61599 542.595 1.46569L542.596 1.46648C542.599 1.46462 542.602 1.46368 542.603 1.46352C542.605 1.46337 542.607 1.46397 542.61 1.46465C542.613 1.46545 542.615 1.46694 542.616 1.46771L542.62 1.47327L554.383 23.2435C554.386 23.2493 554.388 23.2535 554.388 23.2555Z" fill="white" stroke="white" stroke-width="1.55757"/>
<path d="M39.795 64.1285C39.795 60.8473 40.4217 57.7688 41.6752 54.8931C42.9287 52.0174 44.6246 49.5104 46.763 47.3721C48.9382 45.1969 51.4636 43.4825 54.3393 42.229C57.215 40.9755 60.2934 40.3488 63.5747 40.3488H99.9632V56.2203H63.5747C62.4686 56.2203 61.4363 56.4231 60.4778 56.8287C59.5192 57.2342 58.6713 57.8057 57.9339 58.543C57.2334 59.2435 56.6804 60.073 56.2749 61.0316C55.8693 61.9902 55.6665 63.0225 55.6665 64.1285C55.6665 65.2345 55.8693 66.2853 56.2749 67.2807C56.6804 68.2392 57.2334 69.0872 57.9339 69.8246C58.6713 70.525 59.5192 71.0781 60.4778 71.4836C61.4363 71.8892 62.4686 72.0919 63.5747 72.0919H79.4463C82.7275 72.0919 85.8059 72.7187 88.6816 73.9722C91.5942 75.1888 94.1196 76.8847 96.258 79.0599C98.4332 81.1983 100.129 83.7237 101.346 86.6363C102.599 89.512 103.226 92.5904 103.226 95.8716C103.226 99.1529 102.599 102.231 101.346 105.107C100.129 107.983 98.4332 110.508 96.258 112.683C94.1196 114.822 91.5942 116.518 88.6816 117.771C85.8059 119.025 82.7275 119.651 79.4463 119.651H44.2191V103.78H79.4463C80.5523 103.78 81.5846 103.577 82.5432 103.171C83.5017 102.766 84.3312 102.213 85.0317 101.512C85.7691 100.775 86.3405 99.9271 86.7461 98.9685C87.1516 98.01 87.3544 96.9777 87.3544 95.8716C87.3544 94.7656 87.1516 93.7333 86.7461 92.7748C86.3405 91.8162 85.7691 90.9867 85.0317 90.2862C84.3312 89.5488 83.5017 88.9774 82.5432 88.5718C81.5846 88.1663 80.5523 87.9635 79.4463 87.9635H63.5747C60.2934 87.9635 57.215 87.3368 54.3393 86.0833C51.4636 84.8297 48.9382 83.1338 46.763 80.9955C44.6246 78.8203 42.9287 76.2949 41.6752 73.4192C40.4217 70.5066 39.795 67.4097 39.795 64.1285ZM143.041 119.651C139.391 119.651 135.962 118.969 132.755 117.605C129.547 116.204 126.727 114.306 124.294 111.909C121.897 109.476 119.999 106.655 118.598 103.448C117.234 100.24 116.551 96.8118 116.551 93.1619V75.5759H109.196V60.5339H116.551V36.8648H131.594V60.5339H154.488V75.5759H131.594V93.1619C131.594 94.7472 131.888 96.2403 132.478 97.6413C133.068 99.0054 133.879 100.204 134.912 101.236C135.944 102.268 137.161 103.098 138.562 103.724C139.963 104.314 141.456 104.609 143.041 104.609H154.488V119.651H143.041ZM208.792 112.739C207.576 113.845 206.267 114.895 204.866 115.891C203.502 116.849 202.064 117.697 200.552 118.435C199.041 119.135 197.474 119.688 195.852 120.094C194.267 120.536 192.644 120.757 190.985 120.757C187.335 120.757 183.907 120.112 180.699 118.822C177.492 117.531 174.671 115.707 172.238 113.347C169.842 110.951 167.943 108.056 166.542 104.665C165.178 101.236 164.496 97.4017 164.496 93.1619V60.4233H179.538V93.1619C179.538 95.1527 179.833 96.9408 180.423 98.5261C181.049 100.075 181.879 101.383 182.911 102.453C183.944 103.522 185.142 104.333 186.506 104.886C187.907 105.439 189.4 105.715 190.985 105.715C192.534 105.715 193.99 105.365 195.354 104.665C196.755 103.927 197.972 102.969 199.004 101.789C200.036 100.609 200.847 99.2819 201.437 97.8072C202.027 96.2956 202.322 94.7472 202.322 93.1619V60.4233H217.419V119.651H213.77L208.792 112.739ZM246.451 142.214H231.243V60.4233H234.893L240.92 67.5572C242.285 66.2668 243.778 65.0502 245.4 63.9073C247.022 62.7644 248.7 61.7874 250.432 60.9763C252.202 60.1283 254.027 59.4647 255.907 58.9854C257.788 58.5061 259.686 58.2665 261.603 58.2665C265.769 58.2665 269.677 59.0223 273.327 60.5339C277.014 62.0086 280.222 64.1101 282.95 66.8383C285.715 69.5665 287.89 72.8662 289.475 76.7373C291.061 80.5715 291.853 84.8297 291.853 89.512C291.853 94.3785 291.061 98.7658 289.475 102.674C287.89 106.545 285.715 109.845 282.95 112.573C280.222 115.264 277.014 117.329 273.327 118.767C269.677 120.204 265.769 120.923 261.603 120.923C260.276 120.923 258.949 120.776 257.622 120.481C256.331 120.186 255.041 119.799 253.75 119.32C252.497 118.803 251.243 118.232 249.99 117.605C248.773 116.978 247.594 116.333 246.451 115.67V142.214ZM276.701 89.512C276.701 87.0049 276.295 84.756 275.484 82.7652C274.71 80.7743 273.641 79.0968 272.277 77.7327C270.912 76.3317 269.309 75.2626 267.465 74.5252C265.622 73.7878 263.668 73.4192 261.603 73.4192C259.539 73.4192 257.585 73.7878 255.741 74.5252C253.935 75.2626 252.35 76.3317 250.985 77.7327C249.621 79.0968 248.534 80.7743 247.723 82.7652C246.948 84.756 246.561 87.0049 246.561 89.512C246.561 91.9084 246.948 94.102 247.723 96.0929C248.534 98.0837 249.621 99.7796 250.985 101.181C252.35 102.582 253.935 103.669 255.741 104.443C257.585 105.218 259.539 105.605 261.603 105.605C263.668 105.605 265.622 105.218 267.465 104.443C269.309 103.669 270.912 102.582 272.277 101.181C273.641 99.7796 274.71 98.0837 275.484 96.0929C276.295 94.102 276.701 91.9084 276.701 89.512ZM320.331 44.3305C320.331 45.7315 320.055 47.0403 319.502 48.2569C318.986 49.4735 318.267 50.5427 317.345 51.4644C316.424 52.3492 315.336 53.0682 314.082 53.6212C312.866 54.1373 311.557 54.3954 310.156 54.3954C308.755 54.3954 307.428 54.1373 306.174 53.6212C304.958 53.0682 303.888 52.3492 302.967 51.4644C302.082 50.5427 301.363 49.4735 300.81 48.2569C300.294 47.0403 300.036 45.7315 300.036 44.3305C300.036 42.9664 300.294 41.676 300.81 40.4594C301.363 39.2059 302.082 38.1367 302.967 37.2519C303.888 36.3302 304.958 35.6113 306.174 35.0951C307.428 34.5421 308.755 34.2656 310.156 34.2656C311.557 34.2656 312.866 34.5421 314.082 35.0951C315.336 35.6113 316.424 36.3302 317.345 37.2519C318.267 38.1367 318.986 39.2059 319.502 40.4594C320.055 41.676 320.331 42.9664 320.331 44.3305ZM317.732 119.651H302.524V60.4233H317.732V119.651ZM388.793 119.651H385.143L379.281 111.522C377.843 112.812 376.313 114.029 374.691 115.172C373.106 116.278 371.428 117.255 369.658 118.103C367.889 118.914 366.064 119.559 364.183 120.038C362.34 120.518 360.46 120.757 358.543 120.757C354.377 120.757 350.45 119.983 346.763 118.435C343.114 116.849 339.906 114.674 337.141 111.909C334.413 109.107 332.256 105.808 330.671 102.01C329.085 98.1759 328.293 94.0098 328.293 89.512C328.293 85.051 329.085 80.9033 330.671 77.0691C332.256 73.2348 334.413 69.9167 337.141 67.1148C339.906 64.3128 343.114 62.1192 346.763 60.5339C350.45 58.9486 354.377 58.1559 358.543 58.1559C359.87 58.1559 361.234 58.2665 362.635 58.4877C364.073 58.7089 365.455 59.0776 366.783 59.5937C368.147 60.073 369.419 60.7182 370.598 61.5293C371.778 62.3404 372.774 63.3358 373.585 64.5156V36.8648H388.793V119.651ZM373.585 89.512C373.585 87.4474 373.179 85.4565 372.368 83.5394C371.594 81.5854 370.525 79.871 369.161 78.3963C367.797 76.8847 366.193 75.6865 364.349 74.8017C362.543 73.88 360.607 73.4192 358.543 73.4192C356.478 73.4192 354.524 73.7878 352.681 74.5252C350.874 75.2626 349.289 76.3317 347.925 77.7327C346.598 79.0968 345.547 80.7743 344.773 82.7652C343.998 84.756 343.611 87.0049 343.611 89.512C343.611 91.6872 343.998 93.7517 344.773 95.7057C345.547 97.6597 346.598 99.3741 347.925 100.849C349.289 102.324 350.874 103.485 352.681 104.333C354.524 105.181 356.478 105.605 358.543 105.605C360.607 105.605 362.543 105.162 364.349 104.278C366.193 103.356 367.797 102.158 369.161 100.683C370.525 99.1713 371.594 97.457 372.368 95.5398C373.179 93.5858 373.585 91.5766 373.585 89.512ZM459.853 89.512C459.853 93.9361 459.061 98.0653 457.475 101.9C455.89 105.697 453.733 108.997 451.005 111.799C448.277 114.564 445.069 116.757 441.382 118.379C437.733 119.965 433.806 120.757 429.603 120.757C425.437 120.757 421.511 119.965 417.824 118.379C414.174 116.757 410.967 114.564 408.201 111.799C405.473 108.997 403.316 105.697 401.731 101.9C400.146 98.0653 399.353 93.9361 399.353 89.512C399.353 85.0141 400.146 80.848 401.731 77.0138C403.316 73.1795 405.473 69.8799 408.201 67.1148C410.967 64.3128 414.174 62.1192 417.824 60.5339C421.511 58.9486 425.437 58.1559 429.603 58.1559C433.806 58.1559 437.733 58.9117 441.382 60.4233C445.069 61.898 448.277 64.0179 451.005 66.783C453.733 69.5112 455.89 72.8108 457.475 76.682C459.061 80.5162 459.853 84.7929 459.853 89.512ZM444.645 89.512C444.645 87.0787 444.24 84.885 443.429 82.9311C442.654 80.9402 441.585 79.2443 440.221 77.8433C438.857 76.4055 437.253 75.3179 435.41 74.5805C433.603 73.8063 431.668 73.4192 429.603 73.4192C427.539 73.4192 425.585 73.8063 423.741 74.5805C421.935 75.3179 420.349 76.4055 418.985 77.8433C417.658 79.2443 416.607 80.9402 415.833 82.9311C415.059 84.885 414.672 87.0787 414.672 89.512C414.672 91.7978 415.059 93.9177 415.833 95.8716C416.607 97.8256 417.658 99.5216 418.985 100.959C420.349 102.397 421.935 103.54 423.741 104.388C425.585 105.199 427.539 105.605 429.603 105.605C431.668 105.605 433.603 105.218 435.41 104.443C437.253 103.669 438.857 102.582 440.221 101.181C441.585 99.7796 442.654 98.0837 443.429 96.0929C444.24 94.102 444.645 91.9084 444.645 89.512ZM24.0893 242.651H8.2177V163.349H24.0893V195.092H55.7771V163.349H71.6487V242.651H55.7771V210.964H24.0893V242.651ZM143.539 242.651H139.889L134.027 234.522C132.589 235.812 131.059 237.029 129.437 238.172C127.851 239.278 126.174 240.255 124.404 241.103C122.635 241.914 120.81 242.559 118.929 243.038C117.086 243.518 115.206 243.757 113.289 243.757C109.123 243.757 105.196 243.057 101.509 241.656C97.8595 240.255 94.652 238.227 91.8869 235.573C89.1587 232.881 87.0019 229.6 85.4166 225.729C83.8313 221.858 83.0387 217.452 83.0387 212.512C83.0387 207.903 83.8313 203.682 85.4166 199.848C87.0019 195.977 89.1587 192.659 91.8869 189.894C94.652 187.128 97.8595 184.99 101.509 183.479C105.196 181.93 109.123 181.156 113.289 181.156C115.206 181.156 117.104 181.396 118.985 181.875C120.865 182.354 122.69 183.018 124.46 183.866C126.229 184.714 127.907 185.709 129.492 186.852C131.114 187.995 132.626 189.23 134.027 190.557L139.889 183.534H143.539V242.651ZM128.331 212.512C128.331 210.447 127.925 208.456 127.114 206.539C126.34 204.585 125.271 202.871 123.907 201.396C122.542 199.885 120.939 198.687 119.095 197.802C117.289 196.88 115.353 196.419 113.289 196.419C111.224 196.419 109.27 196.769 107.427 197.47C105.62 198.17 104.035 199.203 102.671 200.567C101.344 201.931 100.293 203.627 99.5186 205.655C98.7443 207.645 98.3572 209.931 98.3572 212.512C98.3572 215.093 98.7443 217.397 99.5186 219.425C100.293 221.416 101.344 223.093 102.671 224.457C104.035 225.821 105.62 226.854 107.427 227.554C109.27 228.254 111.224 228.605 113.289 228.605C115.353 228.605 117.289 228.162 119.095 227.278C120.939 226.356 122.542 225.158 123.907 223.683C125.271 222.171 126.34 220.457 127.114 218.54C127.925 216.586 128.331 214.577 128.331 212.512ZM209.124 195.203L198.064 206.318C197.511 204.77 196.755 203.387 195.797 202.171C194.838 200.917 193.75 199.866 192.534 199.018C191.354 198.17 190.064 197.525 188.663 197.083C187.262 196.64 185.824 196.419 184.349 196.419C182.285 196.419 180.331 196.843 178.487 197.691C176.681 198.539 175.095 199.737 173.731 201.286C172.404 202.797 171.353 204.604 170.579 206.705C169.805 208.807 169.418 211.129 169.418 213.673C169.418 215.738 169.805 217.673 170.579 219.48C171.353 221.286 172.404 222.872 173.731 224.236C175.095 225.6 176.681 226.669 178.487 227.443C180.331 228.218 182.285 228.605 184.349 228.605C185.824 228.605 187.243 228.402 188.607 227.996C189.971 227.591 191.243 227.019 192.423 226.282C193.64 225.508 194.709 224.586 195.631 223.517C196.589 222.411 197.363 221.194 197.953 219.867L209.014 230.983C207.613 232.974 205.99 234.762 204.147 236.347C202.341 237.932 200.368 239.278 198.23 240.384C196.128 241.49 193.898 242.32 191.538 242.873C189.216 243.462 186.819 243.757 184.349 243.757C180.183 243.757 176.257 242.983 172.57 241.435C168.92 239.849 165.712 237.693 162.947 234.964C160.219 232.236 158.062 229.047 156.477 225.397C154.892 221.747 154.099 217.839 154.099 213.673C154.099 209.139 154.892 204.899 156.477 200.954C158.062 197.009 160.219 193.58 162.947 190.668C165.712 187.718 168.92 185.396 172.57 183.7C176.257 182.004 180.183 181.156 184.349 181.156C186.819 181.156 189.234 181.469 191.594 182.096C193.99 182.723 196.257 183.644 198.396 184.861C200.571 186.041 202.562 187.497 204.368 189.23C206.212 190.963 207.797 192.954 209.124 195.203ZM234.008 242.651H218.8V159.865H234.008V212.07L256.516 183.534H273.88L254.248 208.198L273.88 242.651H256.516L244.515 221.139L234.008 235.075V242.651ZM303.796 228.162C304.386 228.347 304.976 228.476 305.566 228.549C306.156 228.586 306.746 228.605 307.336 228.605C308.81 228.605 310.23 228.402 311.594 227.996C312.958 227.591 314.23 227.019 315.41 226.282C316.626 225.508 317.695 224.586 318.617 223.517C319.576 222.411 320.35 221.194 320.94 219.867L332 230.983C330.599 232.974 328.977 234.762 327.134 236.347C325.327 237.932 323.355 239.278 321.216 240.384C319.115 241.49 316.884 242.32 314.525 242.873C312.202 243.462 309.806 243.757 307.336 243.757C303.17 243.757 299.243 242.983 295.556 241.435C291.906 239.886 288.699 237.73 285.934 234.964C283.206 232.199 281.049 228.918 279.464 225.121C277.878 221.286 277.086 217.084 277.086 212.512C277.086 207.83 277.878 203.553 279.464 199.682C281.049 195.811 283.206 192.511 285.934 189.783C288.699 187.055 291.906 184.935 295.556 183.423C299.243 181.912 303.17 181.156 307.336 181.156C309.806 181.156 312.221 181.451 314.58 182.041C316.94 182.631 319.17 183.479 321.272 184.585C323.41 185.691 325.401 187.055 327.244 188.677C329.088 190.262 330.71 192.05 332.111 194.041L303.796 228.162ZM311.539 197.027C310.838 196.769 310.138 196.604 309.437 196.53C308.773 196.456 308.073 196.419 307.336 196.419C305.271 196.419 303.317 196.806 301.474 197.581C299.667 198.318 298.082 199.387 296.718 200.788C295.39 202.189 294.34 203.885 293.565 205.876C292.791 207.83 292.404 210.042 292.404 212.512C292.404 213.065 292.423 213.692 292.459 214.392C292.533 215.093 292.625 215.812 292.736 216.549C292.883 217.249 293.049 217.932 293.234 218.595C293.418 219.259 293.658 219.849 293.953 220.365L311.539 197.027ZM371.705 242.651C368.055 242.651 364.626 241.969 361.418 240.605C358.211 239.204 355.391 237.306 352.957 234.909C350.561 232.476 348.662 229.655 347.261 226.448C345.897 223.24 345.215 219.812 345.215 216.162V198.576H337.86V183.534H345.215V159.865H360.257V183.534H383.152V198.576H360.257V216.162C360.257 217.747 360.552 219.24 361.142 220.641C361.732 222.005 362.543 223.204 363.575 224.236C364.607 225.268 365.824 226.098 367.225 226.724C368.626 227.314 370.119 227.609 371.705 227.609H383.152V242.651H371.705ZM423.631 242.651C419.981 242.651 416.552 241.969 413.344 240.605C410.137 239.204 407.317 237.306 404.883 234.909C402.487 232.476 400.588 229.655 399.187 226.448C397.823 223.24 397.141 219.812 397.141 216.162V198.576H389.786V183.534H397.141V159.865H412.183V183.534H435.078V198.576H412.183V216.162C412.183 217.747 412.478 219.24 413.068 220.641C413.658 222.005 414.469 223.204 415.501 224.236C416.534 225.268 417.75 226.098 419.151 226.724C420.552 227.314 422.045 227.609 423.631 227.609H435.078V242.651H423.631ZM463.667 167.33C463.667 168.731 463.39 170.04 462.837 171.257C462.321 172.474 461.602 173.543 460.68 174.464C459.759 175.349 458.671 176.068 457.418 176.621C456.201 177.137 454.892 177.395 453.491 177.395C452.09 177.395 450.763 177.137 449.51 176.621C448.293 176.068 447.224 175.349 446.302 174.464C445.417 173.543 444.698 172.474 444.145 171.257C443.629 170.04 443.371 168.731 443.371 167.33C443.371 165.966 443.629 164.676 444.145 163.459C444.698 162.206 445.417 161.137 446.302 160.252C447.224 159.33 448.293 158.611 449.51 158.095C450.763 157.542 452.09 157.266 453.491 157.266C454.892 157.266 456.201 157.542 457.418 158.095C458.671 158.611 459.759 159.33 460.68 160.252C461.602 161.137 462.321 162.206 462.837 163.459C463.39 164.676 463.667 165.966 463.667 167.33ZM461.068 242.651H445.86V183.423H461.068V242.651ZM489.988 242.651H474.891V183.423H478.541L483.518 189.175C485.951 186.963 488.698 185.267 491.758 184.087C494.855 182.87 498.081 182.262 501.436 182.262C505.049 182.262 508.459 182.962 511.666 184.363C514.874 185.728 517.676 187.626 520.072 190.059C522.469 192.456 524.349 195.276 525.713 198.521C527.114 201.728 527.815 205.157 527.815 208.807V242.651H512.717V208.807C512.717 207.258 512.422 205.802 511.832 204.438C511.242 203.037 510.431 201.82 509.399 200.788C508.367 199.756 507.169 198.945 505.804 198.355C504.44 197.765 502.984 197.47 501.436 197.47C499.85 197.47 498.357 197.765 496.956 198.355C495.555 198.945 494.339 199.756 493.306 200.788C492.274 201.82 491.463 203.037 490.873 204.438C490.283 205.802 489.988 207.258 489.988 208.807V242.651ZM598.101 212.512C598.101 216.936 597.308 221.065 595.723 224.9C594.138 228.697 591.981 231.997 589.253 234.799C586.524 237.564 583.317 239.757 579.63 241.379C575.98 242.965 572.054 243.757 567.851 243.757C563.685 243.757 559.758 242.965 556.072 241.379C552.422 239.757 549.214 237.564 546.449 234.799C543.721 231.997 541.564 228.697 539.979 224.9C538.393 221.065 537.601 216.936 537.601 212.512C537.601 208.014 538.393 203.848 539.979 200.014C541.564 196.18 543.721 192.88 546.449 190.115C549.214 187.313 552.422 185.119 556.072 183.534C559.758 181.949 563.685 181.156 567.851 181.156C572.054 181.156 575.98 181.912 579.63 183.423C583.317 184.898 586.524 187.018 589.253 189.783C591.981 192.511 594.138 195.811 595.723 199.682C597.308 203.516 598.101 207.793 598.101 212.512ZM582.893 212.512C582.893 210.079 582.487 207.885 581.676 205.931C580.902 203.94 579.833 202.244 578.469 200.843C577.105 199.405 575.501 198.318 573.657 197.581C571.851 196.806 569.915 196.419 567.851 196.419C565.786 196.419 563.832 196.806 561.989 197.581C560.182 198.318 558.597 199.405 557.233 200.843C555.906 202.244 554.855 203.94 554.081 205.931C553.306 207.885 552.919 210.079 552.919 212.512C552.919 214.798 553.306 216.918 554.081 218.872C554.855 220.826 555.906 222.522 557.233 223.959C558.597 225.397 560.182 226.54 561.989 227.388C563.832 228.199 565.786 228.605 567.851 228.605C569.915 228.605 571.851 228.218 573.657 227.443C575.501 226.669 577.105 225.582 578.469 224.181C579.833 222.78 580.902 221.084 581.676 219.093C582.487 217.102 582.893 214.908 582.893 212.512Z" fill="white"/>
<defs>
<clipPath id="clip0_236_40">
<rect width="99.5732" height="100.686" fill="white" transform="translate(454.883 45.387) rotate(-6.68858)"/>
</clipPath>
</defs>
</svg>
